<svg width="291" height="63" viewBox="0 0 291 63" fill="none" xmlns="http://www.w3.org/2000/svg">
<path d="M227.271 25.9324C227.793 22.3183 228.296 18.7041 228.78 15.09C229.302 11.4758 229.805 7.8617 230.289 4.24756C230.475 2.83171 230.848 1.80708 231.407 1.17367C231.966 0.540266 233.009 0.223563 234.537 0.223563C236.474 0.223563 238.467 0.223563 240.517 0.223563C242.603 0.186303 244.671 0.186303 246.72 0.223563C248.77 0.223563 250.726 0.223563 252.589 0.223563C254.303 0.260821 255.793 0.540265 257.06 1.06189C258.327 1.54626 259.258 2.3846 259.854 3.57689C260.45 4.76919 260.618 6.38996 260.357 8.43922C259.873 11.7926 258.736 14.1771 256.948 15.593C255.197 16.9716 253.017 17.6423 250.409 17.605C248.211 17.5677 245.919 17.5491 243.535 17.5491C241.15 17.5491 238.859 17.5491 236.66 17.5491C236.847 16.1705 236.977 15.1645 237.052 14.5311C237.163 13.8604 237.312 13.432 237.499 13.2457C237.685 13.0221 238.039 12.9103 238.561 12.9103C239.306 12.9103 240.163 12.9103 241.131 12.9103C242.137 12.9103 243.162 12.9103 244.205 12.9103C245.249 12.9103 246.236 12.9103 247.167 12.9103C247.801 12.9103 248.378 12.7799 248.9 12.5191C249.459 12.221 249.925 11.7553 250.297 11.1219C250.67 10.4885 250.912 9.66878 251.024 8.66278C251.21 7.47048 251.136 6.59489 250.8 6.036C250.465 5.43985 249.813 5.10452 248.844 5.03C247.838 4.99274 246.851 4.97411 245.882 4.97411C244.95 4.97411 244.019 4.97411 243.088 4.97411C242.156 4.97411 241.28 4.99274 240.461 5.03C240.237 5.03 239.976 5.12315 239.678 5.30945C239.417 5.49574 239.268 5.73793 239.231 6.036C238.747 9.35207 238.262 12.6681 237.778 15.9842C237.331 19.263 236.884 22.5791 236.437 25.9324H227.271Z" fill="#E9E9E9"/>
<path d="M220.59 13.1898C220.33 14.9409 220.032 16.5058 219.696 17.8844C219.361 19.263 218.858 20.4739 218.187 21.5172C217.517 22.5232 216.585 23.3615 215.393 24.0322C214.2 24.7029 212.636 25.2059 210.698 25.5412C208.761 25.8765 206.301 26.0442 203.321 26.0442C200.34 26.0442 197.9 25.8765 195.999 25.5412C194.136 25.2059 192.702 24.7029 191.696 24.0322C190.727 23.3615 190.075 22.5418 189.74 21.5731C189.442 20.6043 189.33 19.4679 189.404 18.1639C189.479 16.8598 189.628 15.4067 189.852 13.8045L191.193 4.35932C191.379 3.20428 191.547 2.32869 191.696 1.73254C191.845 1.13639 192.162 0.745169 192.646 0.558873C193.168 0.335319 194.006 0.223541 195.161 0.223541H200.973L198.794 15.593C198.607 17.1579 198.645 18.3315 198.906 19.114C199.204 19.8964 199.781 20.418 200.638 20.6789C201.532 20.9024 202.687 21.0142 204.103 21.0142C206.376 21.0142 208.015 20.623 209.021 19.8405C210.065 19.0581 210.735 17.6609 211.033 15.6489L213.213 0.223541H218.858C220.087 0.223541 220.926 0.335319 221.373 0.558873C221.82 0.745169 222.044 1.13639 222.044 1.73254C222.044 2.32869 221.969 3.20428 221.82 4.35932L220.59 13.1898Z" fill="#E9E9E9"/>
<path d="M166.05 17.2697C166.05 17.2697 165.677 17.2697 164.932 17.2697C164.224 17.2697 163.311 17.2883 162.194 17.3256C161.076 17.3256 159.94 17.3256 158.784 17.3256L157.555 25.9324H148.389L151.519 3.63279C151.668 2.55227 152.003 1.71394 152.525 1.11779C153.084 0.521647 154.108 0.223573 155.599 0.223573C156.158 0.223573 156.996 0.223573 158.114 0.223573C159.269 0.186314 160.554 0.167684 161.97 0.167684C163.423 0.167684 164.932 0.167684 166.497 0.167684C168.062 0.130425 169.552 0.130425 170.968 0.167684C172.384 0.167684 173.632 0.186314 174.713 0.223573C175.793 0.223573 176.557 0.242203 177.004 0.279462C178.979 0.465758 180.395 1.08054 181.252 2.12379C182.109 3.12979 182.388 4.78783 182.09 7.0979C181.755 9.18442 181.364 10.712 180.916 11.6808C180.469 12.6123 179.873 13.3388 179.128 13.8604C178.83 14.0467 178.439 14.1958 177.954 14.3076C177.47 14.4193 176.967 14.4752 176.445 14.4752L176.389 14.6988C176.65 14.6988 176.93 14.6988 177.228 14.6988C177.563 14.6988 177.843 14.7174 178.066 14.7547C178.998 14.941 179.631 15.2577 179.966 15.7048C180.339 16.1146 180.544 16.6176 180.581 17.2138C180.618 17.7727 180.581 18.3502 180.469 18.9463L179.799 23.8646C179.687 24.5725 179.687 25.0941 179.799 25.4294C179.91 25.7275 179.985 25.8952 180.022 25.9324H173.148C172.216 25.9324 171.49 25.7834 170.968 25.4853C170.484 25.1873 170.298 24.5538 170.409 23.5851L170.968 19.8964C171.155 18.7414 171.006 18.0149 170.521 17.7168C170.037 17.4187 169.161 17.2697 167.894 17.2697H166.05ZM159.399 12.9103C159.772 12.9103 160.368 12.929 161.188 12.9662C162.045 12.9662 162.958 12.9662 163.926 12.9662C164.932 12.9662 165.864 12.9662 166.721 12.9662C167.578 12.9662 168.192 12.9662 168.565 12.9662C169.459 12.9662 170.279 12.6868 171.024 12.1279C171.807 11.5317 172.291 10.4326 172.477 8.83045C172.664 7.71268 172.608 6.83709 172.31 6.20368C172.012 5.57027 171.434 5.21631 170.577 5.14179C170.055 5.03001 169.347 4.97412 168.453 4.97412C167.596 4.97412 166.683 4.97412 165.715 4.97412C164.783 4.97412 163.926 4.99275 163.144 5.03001C162.361 5.03001 161.784 5.03001 161.411 5.03001C161.337 5.03001 161.15 5.0859 160.852 5.19768C160.592 5.30946 160.424 5.5889 160.349 6.03601L159.399 12.9103Z" fill="#E9E9E9"/>
<path d="M124.002 25.9883C122.624 25.9883 121.264 25.9883 119.922 25.9883C118.581 25.9883 117.277 25.9697 116.01 25.9324C114.743 25.9324 113.514 25.9324 112.321 25.9324C111.166 25.9324 110.104 25.9324 109.136 25.9324L112.154 4.35936C112.34 2.90625 112.694 1.86299 113.216 1.22958C113.775 0.596175 114.836 0.260842 116.401 0.223583C117.37 0.223583 118.413 0.223583 119.531 0.223583C120.686 0.186324 121.878 0.167694 123.108 0.167694C124.338 0.167694 125.567 0.167694 126.797 0.167694C128.063 0.167694 129.293 0.167694 130.485 0.167694C133.056 0.204954 135.199 0.428509 136.913 0.83836C138.626 1.24821 139.949 1.93751 140.881 2.90625C141.812 3.83773 142.39 5.16043 142.613 6.87436C142.874 8.55102 142.818 10.6934 142.445 13.3016C142.073 16.0588 141.458 18.2757 140.601 19.9523C139.781 21.629 138.664 22.9145 137.248 23.8087C135.869 24.6656 134.099 25.2432 131.938 25.5412C129.777 25.8393 127.132 25.9883 124.002 25.9883ZM125.008 21.3496C126.387 21.3496 127.56 21.2005 128.529 20.9025C129.498 20.6044 130.299 20.1386 130.932 19.5052C131.603 18.8718 132.125 18.0521 132.497 17.0461C132.87 16.0029 133.168 14.7547 133.391 13.3016C133.652 11.3641 133.727 9.81783 133.615 8.6628C133.541 7.50776 133.261 6.6508 132.777 6.09191C132.292 5.53302 131.584 5.17906 130.653 5.03002C129.721 4.84373 128.548 4.75058 127.132 4.75058C126.759 4.75058 126.331 4.75058 125.847 4.75058C125.362 4.75058 124.859 4.76921 124.338 4.80647C123.816 4.80647 123.313 4.80647 122.829 4.80647C122.381 4.80647 121.972 4.8251 121.599 4.86236C121.487 5.04865 121.375 5.29084 121.264 5.58891C121.152 5.84973 121.059 6.22232 120.984 6.70669L118.916 21.2937C119.252 21.2937 119.68 21.2937 120.202 21.2937C120.723 21.2937 121.264 21.3123 121.823 21.3496C122.419 21.3496 122.996 21.3496 123.555 21.3496C124.114 21.3496 124.598 21.3496 125.008 21.3496Z" fill="#E9E9E9"/>
<path d="M68.791 25.9324L71.9208 3.35332C72.0698 2.49635 72.2375 1.84432 72.4238 1.39721C72.6101 0.950095 72.9268 0.652021 73.3739 0.502985C73.8583 0.316689 74.5848 0.223541 75.5536 0.223541H84.2163L94.1087 16.6549L94.2204 17.9403L96.6795 0.223541H103.442C103.368 0.298059 103.274 0.540244 103.163 0.950096C103.088 1.32269 103.014 1.75117 102.939 2.23554C102.902 2.68265 102.846 3.0925 102.771 3.46509L100.033 23.1939C99.8466 24.4234 99.474 25.1872 98.9151 25.4853C98.3562 25.7834 97.3875 25.9324 96.0089 25.9324H88.1286L77.9568 9.16576L77.9009 7.76853L75.33 25.9324H68.791Z" fill="#E9E9E9"/>
<path d="M28.9165 25.9324L40.8208 4.58288C41.6405 3.12977 42.6652 2.012 43.8947 1.22955C45.1243 0.409851 46.95 0 49.3718 0C51.3093 0 52.8369 0.372591 53.9547 1.11778C55.0725 1.86296 55.8363 3.018 56.2461 4.58288L62.1704 25.9324H52.278L50.6573 20.1759H39.0324L35.9026 25.9324H28.9165ZM40.9326 16.6549H49.4277L47.5275 8.83043C47.4902 8.53236 47.3971 8.27155 47.248 8.04799C47.1363 7.78718 46.8941 7.65677 46.5215 7.65677C46.1116 7.65677 45.8136 7.78718 45.6273 8.04799C45.441 8.27155 45.2733 8.53236 45.1243 8.83043L40.9326 16.6549Z" fill="#E9E9E9"/>
<path d="M12.7985 0.223541L9.89232 21.126H26.7708L26.156 25.9324H0L3.18566 3.24154C3.29744 2.57087 3.40922 2.01198 3.521 1.56487C3.67003 1.11776 3.96811 0.782429 4.41522 0.558873C4.89959 0.335319 5.64477 0.223541 6.65077 0.223541H12.7985Z" fill="#E9E9E9"/>
<path d="M259.139 55.7957C260.033 56.2056 261.188 56.5223 262.604 56.7458C264.057 56.9321 265.548 57.0439 267.075 57.0811C268.64 57.1184 270.019 57.137 271.211 57.137C271.658 57.137 272.217 57.137 272.888 57.137C273.596 57.137 274.173 57.1184 274.62 57.0811C275.626 57.0811 276.483 56.988 277.191 56.8017C277.936 56.5781 278.514 56.2428 278.924 55.7957C279.371 55.3486 279.65 54.7152 279.762 53.8955C279.874 53.2621 279.818 52.7777 279.594 52.4424C279.408 52.0698 279.073 51.8276 278.588 51.7158C278.104 51.5668 277.471 51.4923 276.688 51.4923C276.278 51.4923 275.794 51.4923 275.235 51.4923C274.713 51.4923 274.043 51.4923 273.223 51.4923C272.403 51.4923 271.36 51.4923 270.093 51.4923C268.864 51.4923 267.653 51.4364 266.461 51.3246C265.268 51.2128 264.206 50.952 263.275 50.5422C262.381 50.095 261.71 49.4057 261.263 48.4743C260.816 47.5055 260.723 46.1828 260.983 44.5062C261.244 42.4942 261.785 40.9293 262.604 39.8115C263.461 38.6565 264.56 37.7995 265.902 37.2406C267.243 36.6817 268.789 36.3278 270.54 36.1787C272.292 36.0297 274.229 35.9552 276.353 35.9552C277.62 35.9552 278.98 35.9738 280.433 36.0111C281.886 36.0483 283.246 36.1042 284.513 36.1787C285.817 36.2532 286.804 36.3837 287.475 36.5699C288.742 36.6445 289.654 36.9798 290.213 37.5759C290.809 38.1721 291.052 38.9173 290.94 39.8115C290.94 39.9605 290.903 40.2213 290.828 40.5939C290.791 40.9293 290.754 41.2646 290.716 41.5999C290.679 41.9353 290.642 42.1216 290.605 42.1588C290.381 41.898 289.878 41.6931 289.096 41.5441C288.35 41.3578 287.438 41.2273 286.357 41.1528C285.314 41.0783 284.27 41.0224 283.227 40.9852C282.221 40.9479 281.346 40.9293 280.6 40.9293H275.515C274.471 40.9293 273.596 41.0224 272.888 41.2087C272.217 41.3578 271.677 41.6372 271.267 42.0471C270.894 42.4569 270.652 43.0344 270.54 43.7796C270.466 44.3758 270.503 44.8601 270.652 45.2327C270.801 45.568 271.118 45.8102 271.602 45.9593C272.087 46.1083 272.72 46.1828 273.503 46.1828C275.775 46.1828 277.582 46.1828 278.924 46.1828C280.302 46.1828 281.197 46.1828 281.606 46.1828C283.395 46.1828 284.941 46.3319 286.245 46.6299C287.549 46.928 288.499 47.5987 289.096 48.6419C289.729 49.6852 289.878 51.2873 289.543 53.4484C289.245 55.4976 288.593 57.137 287.587 58.3666C286.618 59.5589 285.388 60.4345 283.898 60.9934C282.408 61.5523 280.694 61.8876 278.756 61.9994C276.93 62.1111 275.216 62.167 273.614 62.167C272.049 62.167 270.354 62.167 268.528 62.167C267.075 62.1298 265.734 62.0553 264.504 61.9435C263.275 61.869 262.213 61.7199 261.319 61.4964C260.425 61.2355 259.754 60.9002 259.307 60.4904C258.86 60.0433 258.673 59.4657 258.748 58.7578L259.139 55.7957Z" fill="#E9E9E9"/>
<path d="M218.962 61.8876L222.091 39.3085C222.24 38.4515 222.408 37.7995 222.594 37.3524C222.781 36.9053 223.097 36.6072 223.545 36.4582C224.029 36.2719 224.755 36.1787 225.724 36.1787H234.387L244.279 52.61L244.391 53.8955L246.85 36.1787H253.613C253.538 36.2532 253.445 36.4954 253.333 36.9053C253.259 37.2779 253.184 37.7063 253.11 38.1907C253.072 38.6378 253.017 39.0477 252.942 39.4203L250.204 59.149C250.017 60.3786 249.645 61.1424 249.086 61.4405C248.527 61.7385 247.558 61.8876 246.18 61.8876H238.299L228.127 45.1209L228.072 43.7237L225.501 61.8876H218.962Z" fill="#E9E9E9"/>
<path d="M179.087 61.8876L190.991 40.5381C191.811 39.0849 192.836 37.9672 194.065 37.1847C195.295 36.365 197.12 35.9552 199.542 35.9552C201.48 35.9552 203.007 36.3278 204.125 37.0729C205.243 37.8181 206.007 38.9732 206.417 40.5381L212.341 61.8876H202.448L200.828 56.131H189.203L186.073 61.8876H179.087ZM191.103 52.61H199.598L197.698 44.7856C197.661 44.4875 197.567 44.2267 197.418 44.0032C197.307 43.7423 197.064 43.6119 196.692 43.6119C196.282 43.6119 195.984 43.7423 195.798 44.0032C195.611 44.2267 195.444 44.4875 195.295 44.7856L191.103 52.61Z" fill="#E9E9E9"/>
<path d="M157.942 61.9435C156.563 61.9435 155.203 61.9435 153.862 61.9435C152.521 61.9435 151.217 61.9249 149.95 61.8876C148.683 61.8876 147.453 61.8876 146.261 61.8876C145.106 61.8876 144.044 61.8876 143.075 61.8876L146.093 40.3145C146.28 38.8614 146.634 37.8181 147.155 37.1847C147.714 36.5513 148.776 36.216 150.341 36.1787C151.31 36.1787 152.353 36.1787 153.471 36.1787C154.626 36.1415 155.818 36.1228 157.048 36.1228C158.277 36.1228 159.507 36.1228 160.736 36.1228C162.003 36.1228 163.233 36.1228 164.425 36.1228C166.996 36.1601 169.138 36.3837 170.852 36.7935C172.566 37.2034 173.889 37.8927 174.82 38.8614C175.752 39.7929 176.329 41.1156 176.553 42.8295C176.814 44.5062 176.758 46.6486 176.385 49.2567C176.013 52.0139 175.398 54.2308 174.541 55.9075C173.721 57.5842 172.603 58.8696 171.188 59.7638C169.809 60.6208 168.039 61.1983 165.878 61.4964C163.717 61.7945 161.072 61.9435 157.942 61.9435ZM158.948 57.3047C160.326 57.3047 161.5 57.1557 162.469 56.8576C163.438 56.5595 164.239 56.0938 164.872 55.4604C165.543 54.827 166.064 54.0073 166.437 53.0013C166.81 51.958 167.108 50.7098 167.331 49.2567C167.592 47.3192 167.667 45.773 167.555 44.618C167.48 43.4629 167.201 42.606 166.716 42.0471C166.232 41.4882 165.524 41.1342 164.593 40.9852C163.661 40.7989 162.487 40.7057 161.072 40.7057C160.699 40.7057 160.271 40.7057 159.786 40.7057C159.302 40.7057 158.799 40.7244 158.277 40.7616C157.756 40.7616 157.253 40.7616 156.768 40.7616C156.321 40.7616 155.911 40.7803 155.539 40.8175C155.427 41.0038 155.315 41.246 155.203 41.5441C155.092 41.8049 154.998 42.1775 154.924 42.6618L152.856 57.2488C153.191 57.2488 153.62 57.2488 154.141 57.2488C154.663 57.2488 155.203 57.2675 155.762 57.3047C156.358 57.3047 156.936 57.3047 157.495 57.3047C158.054 57.3047 158.538 57.3047 158.948 57.3047Z" fill="#E9E9E9"/>
</svg>
